<svg width="28" height="28" viewBox="0 0 28 28" fill="none" xmlns="http://www.w3.org/2000/svg">
<path d="M14.1597 14.6942V21.5425L18.3873 23.9482C18.7649 24.1629 19.2148 24.1629 19.5925 23.9482C19.9701 23.7335 20.1951 23.3497 20.1951 22.9204V18.1277L17.1774 16.4115L14.1597 14.6954V14.6942Z" fill="#18181B"/>
<path d="M7.94073 4.05998C7.56307 4.27465 7.33813 4.65848 7.33813 5.08781V9.89915L10.3476 11.6118L13.357 13.3245V6.45748L9.14592 4.06115C8.76826 3.84648 8.31839 3.84648 7.94073 4.06115V4.05998Z" fill="#18181B"/>
<path d="M7.33813 10.8138V17.6622L10.3476 19.3737L13.357 21.0863V14.238L10.3476 12.5253L7.33813 10.8138Z" fill="#18181B"/>
<path d="M1.70519 15.5528C1.49801 15.5528 1.29201 15.6065 1.10259 15.7138C0.724937 15.9285 0.5 16.3123 0.5 16.7416V20.867C0.5 21.2893 0.730856 21.6836 1.10259 21.8948L6.53541 24.9853V18.1183L2.30778 15.7126C2.11954 15.6053 1.91237 15.5516 1.70519 15.5516V15.5528Z" fill="#18181B"/>
<path d="M7.33813 18.5757V25.4427L11.5492 27.839C11.9268 28.0537 12.3767 28.0537 12.7544 27.839C13.132 27.6243 13.357 27.2405 13.357 26.8112V22.001L10.3476 20.2883L7.33813 18.5757Z" fill="#18181B"/>
<path d="M14.1597 6.9137V13.7807L17.1774 15.4969L20.1939 17.2142V10.3472L17.1774 8.63103L14.1597 6.9137Z" fill="#18181B"/>
<path d="M14.7623 0.161C14.3846 0.375667 14.1597 0.7595 14.1597 1.18883V6.00017L17.1774 7.71633L20.1951 9.4325V2.56667L15.9663 0.161C15.5886 -0.0536667 15.1387 -0.0536667 14.7611 0.161H14.7623Z" fill="#18181B"/>
<path d="M26.4294 6.11455L20.9966 3.02405V9.89105L25.2242 12.2967C25.6019 12.5114 26.0517 12.5114 26.4294 12.2967C26.8071 12.082 27.032 11.6982 27.032 11.2689V7.14355C27.032 6.72121 26.8011 6.32688 26.4294 6.11571V6.11455Z" fill="#18181B"/>
</svg>
